PathFileType	4	(X/Y/Z)	C:/Users/opensim2020/Desktop/walking_exp_matlab/subject03_walking12_straight_04.trc	
DataRate	CameraRate	NumFrames	NumMarkers	Units	OrigDataRate	OrigDataStartFrame	OrigNumFrames	
100.00	100.00	9	48	mm	100.00	2247	202	
Frame#	Time	LFHD			RFHD			LBHD			RBHD			C7			T10			CLAV			STRN			RBAK			LSHO			LUPA			LELB			LFRM			LWRA			LWRB			LFIN			RSHO			RUPA			RELB			RFRM			RWRA			RWRB			RFIN			LASI			RASI			LPSI			RPSI			LTHI			LKNE			LTIB			LANK			LHEE			LTOE			RTHI			RKNE			RTIB			RANK			RHEE			RTOE			*39			*40			*41			*42			*43			*44			*45			*46			*47			
		X1	Y1	Z1	X2	Y2	Z2	X3	Y3	Z3	X4	Y4	Z4	X5	Y5	Z5	X6	Y6	Z6	X7	Y7	Z7	X8	Y8	Z8	X9	Y9	Z9	X10	Y10	Z10	X11	Y11	Z11	X12	Y12	Z12	X13	Y13	Z13	X14	Y14	Z14	X15	Y15	Z15	X16	Y16	Z16	X17	Y17	Z17	X18	Y18	Z18	X19	Y19	Z19	X20	Y20	Z20	X21	Y21	Z21	X22	Y22	Z22	X23	Y23	Z23	X24	Y24	Z24	X25	Y25	Z25	X26	Y26	Z26	X27	Y27	Z27	X28	Y28	Z28	X29	Y29	Z29	X30	Y30	Z30	X31	Y31	Z31	X32	Y32	Z32	X33	Y33	Z33	X34	Y34	Z34	X35	Y35	Z35	X36	Y36	Z36	X37	Y37	Z37	X38	Y38	Z38	X39	Y39	Z39	X40	Y40	Z40	X41	Y41	Z41	X42	Y42	Z42	X43	Y43	Z43	X44	Y44	Z44	X45	Y45	Z45	X46	Y46	Z46	X47	Y47	Z47	X48	Y48	Z48	

102	1.010	1478.44153	145.04860	1601.42517	1347.92285	173.40562	1603.66052	1500.53894	273.72256	1565.09546	1371.40759	296.77545	1566.90735	1446.01831	318.66391	1399.24060	1439.97266	348.62979	1084.04187	1429.26611	198.43047	1323.00305	1433.70581	151.63405	1158.82764	1358.71753	379.92169	1218.78760	1587.38538	224.07693	1363.23169	1669.73535	180.61491	1183.70667	1687.18640	128.72408	1075.78699	1673.12976	27.98645	1000.57556	1625.48376	-63.80811	937.61877	1674.90112	-49.99503	917.91547	1657.17944	-121.59782	881.14282	1276.98914	266.73633	1345.96106	1206.48474	300.38654	1125.36902	1193.22986	303.53192	1012.17938	1189.05786	315.68738	875.49438	1218.06567	301.25497	774.78485	1180.32031	340.64685	777.32886	1187.68750	333.35773	702.74902	1560.92761	183.72736	926.25079	1321.46008	177.26161	921.11536	1499.39697	344.32324	945.93732	1351.36560	339.53827	944.38953	1599.84326	287.27109	634.29211	1567.20313	331.07697	459.48999	1574.70190	449.79483	296.61313	1540.09265	552.66016	110.99412	1507.47632	605.21436	92.38359	1503.36450	422.76215	32.93578	1268.58643	172.00374	629.85083	1306.36865	82.44331	475.91968	1294.65588	48.59672	292.12924	1331.09741	-19.36098	83.34384	1384.93933	7.94079	37.42433	1343.64868	-163.74998	89.73029																											 
103	1.020	1477.86023	131.24858	1600.36328	1347.27673	159.16260	1602.69238	1499.69385	259.89267	1564.19641	1370.44531	282.64380	1565.96179	1444.76038	304.64792	1397.94446	1439.53577	333.74646	1082.65332	1428.50146	184.30501	1322.08569	1432.89014	137.15497	1158.11328	1357.52271	365.32178	1217.45264	1586.65186	210.87859	1362.32666	1669.30115	167.92070	1182.55139	1686.46130	115.61256	1075.24268	1671.08252	13.11997	1003.45990	1622.13940	-80.11831	943.94763	1671.57422	-67.48217	923.43658	1653.52600	-140.39308	890.08167	1276.05334	252.20451	1344.88367	1205.78406	286.25864	1124.35645	1192.81287	290.23944	1011.16498	1188.41113	304.24634	874.63971	1217.43665	291.16699	773.73688	1179.29858	330.56781	776.87836	1187.44043	325.43320	702.08813	1559.90454	168.61075	924.73541	1320.13684	161.79564	921.28796	1498.60962	328.90741	944.44659	1350.75134	324.52365	943.88416	1599.28076	272.99567	633.11938	1567.77136	317.54956	458.23099	1575.16064	440.50266	297.98593	1540.55383	548.40924	115.39513	1508.28809	601.95618	99.01178	1503.15088	422.15646	32.73585	1268.45227	153.03197	631.29248	1306.25317	64.48325	477.35736	1294.31262	34.72774	290.90152	1331.24780	-28.47412	80.82303	1384.48035	0.62153	35.17697	1346.27380	-172.50800	84.50793																											 
104	1.030	1477.35046	117.33231	1599.38232	1346.65686	144.91447	1601.71655	1498.67004	245.89908	1563.28955	1369.52283	268.46332	1565.10168	1443.61267	290.66165	1396.78015	1439.13745	318.73471	1081.34570	1427.64075	170.04761	1321.29102	1431.91113	122.17375	1157.55103	1356.43225	350.67508	1216.22107	1585.89368	197.60576	1361.45020	1668.82690	155.58461	1181.34338	1685.70837	102.98709	1074.52576	1669.07654	-1.23440	1006.04822	1618.98657	-95.64558	949.76099	1668.34839	-84.03741	928.57263	1649.98206	-158.06636	898.52710	1275.10962	237.73944	1344.06030	1205.15039	272.31598	1123.52234	1192.27649	276.61276	1010.33405	1187.59949	291.99081	874.00146	1217.01526	281.15930	772.61163	1178.31384	319.70557	776.44580	1187.21167	316.41211	701.25812	1558.54199	152.98119	923.21979	1318.50269	146.10127	921.84509	1497.91748	313.14383	942.99573	1350.32227	309.35013	943.34467	1598.66187	257.88971	631.79932	1568.76135	303.11975	456.73642	1575.64404	430.12415	299.43735	1541.09583	543.86493	120.68151	1508.89038	597.75256	106.41832	1503.21143	421.68576	32.71356	1267.90686	133.12776	633.02234	1306.55530	46.53102	478.47464	1294.19849	21.54593	289.27948	1331.73596	-34.78611	77.46777	1384.46985	-3.51614	33.10005	1348.93848	-178.44696	77.37706																											 
105	1.040	1476.74292	103.59014	1598.45337	1346.05444	130.74174	1600.79553	1497.90051	232.39030	1562.45984	1368.58765	254.32042	1564.35962	1442.37878	276.63885	1395.61304	1438.60706	303.58096	1080.01721	1426.68457	155.74731	1320.57886	1430.97900	107.06700	1157.19629	1355.37012	335.78210	1214.90381	1585.08887	184.21577	1360.62988	1668.36853	143.39507	1180.08167	1684.89417	90.71387	1073.71375	1667.18164	-14.73649	1008.29028	1615.99084	-110.33338	955.19543	1665.20508	-99.52620	932.94617	1646.62659	-174.62605	906.44989	1274.07776	223.24892	1343.27905	1204.15222	257.51776	1122.77832	1191.71619	262.65237	1009.56781	1187.01514	279.40860	873.32367	1216.43567	269.72284	771.81177	1177.32068	307.93158	776.12750	1186.90649	306.86963	700.75922	1556.91724	136.86697	921.90356	1316.76929	130.14587	922.52368	1497.24329	297.16342	941.61047	1349.88574	293.67477	942.68372	1598.18274	241.93303	630.38947	1569.75806	286.84122	454.95081	1576.08887	418.82083	301.09329	1541.45081	538.57837	126.69753	1508.79468	592.49695	114.94110	1503.23804	421.20636	32.63392	1267.69873	112.87419	634.61481	1306.66907	28.71420	478.90891	1294.42627	8.99934	287.29642	1332.88293	-39.67923	73.98209	1385.53662	-5.71211	31.97305	1351.53210	-182.51518	67.92416																											 
106	1.050	1476.30957	89.69998	1597.75916	1345.44141	116.56522	1600.13306	1497.03943	218.70660	1561.72778	1367.14148	240.24541	1563.56934	1441.22778	262.90576	1394.75598	1437.84717	288.14236	1078.75684	1425.78589	141.31673	1319.97034	1429.90955	91.90278	1156.97449	1354.31433	320.80319	1213.51514	1584.17529	170.90935	1359.80945	1667.82581	131.37437	1178.83252	1684.08411	78.72072	1072.82654	1665.29053	-27.70594	1010.13739	1613.11865	-124.22646	959.92816	1662.33728	-114.56951	937.01196	1643.36096	-190.16710	913.53723	1272.99268	208.67477	1342.71875	1203.24780	242.76944	1122.14746	1191.12000	248.37480	1008.87805	1186.31018	266.16547	872.75482	1216.07190	257.68118	771.16815	1176.34314	295.52551	775.87079	1186.68909	296.25107	700.30945	1555.21338	120.22690	920.64478	1315.12915	114.12559	923.28479	1496.33191	281.32278	940.34308	1348.97681	278.06699	942.21069	1597.79846	225.00891	628.79193	1570.95288	268.90414	452.80640	1576.45959	406.30579	302.87604	1541.24036	531.90356	133.32753	1507.95178	585.60992	124.41142	1503.26978	420.48767	32.70955	1267.13208	92.66973	635.97314	1306.19250	11.83750	479.53882	1295.97668	-3.20483	285.82870	1333.01819	-46.10019	73.11642	1386.05286	-8.95900	34.81720	1353.74072	-188.88988	54.95922																											 
107	1.060	1475.79590	75.88085	1597.64844	1344.82312	102.25002	1600.09277	1495.98328	204.71469	1561.50549	1366.46399	226.07780	1563.43896	1439.94592	249.34019	1394.04114	1436.73901	272.44629	1077.79675	1424.88989	127.16344	1319.90955	1428.86719	76.96180	1157.42932	1353.45459	305.83408	1212.24658	1583.35266	157.50337	1359.20886	1667.11682	119.37639	1177.61316	1683.31982	66.88839	1071.83203	1663.52026	-40.28305	1011.57104	1610.30615	-137.41670	964.04828	1659.39099	-128.62244	940.56226	1640.06738	-204.80046	919.54803	1271.73474	194.12193	1342.35144	1202.24268	227.94800	1121.65833	1190.25635	233.84267	1008.37982	1185.62610	252.44916	872.33301	1215.88196	245.13162	770.54517	1175.44092	282.39261	775.62329	1186.55908	284.83063	699.99487	1553.41736	103.57225	919.60638	1313.55774	98.11069	924.03473	1495.32605	265.22940	939.18799	1347.72168	261.84164	941.85974	1597.46387	207.08797	626.94373	1572.40198	249.46451	450.38544	1576.47729	392.12729	304.79990	1540.31897	523.63611	140.95871	1506.47864	576.52478	135.03471	1503.22864	419.45197	32.74335	1265.20044	74.31077	637.54657	1305.65918	-4.15865	480.43842	1295.84265	-16.70775	286.57663	1331.29187	-53.31466	72.45907	1383.55872	-12.34360	37.59190	1356.19373	-194.68779	46.96159																											 
108	1.070	1475.27991	62.07332	1597.91028	1344.33191	87.96067	1600.44556	1495.12695	191.20256	1561.95544	1365.47192	211.82346	1563.97510	1438.58582	235.61317	1393.75183	1435.79395	256.90140	1077.35156	1423.89917	113.07890	1320.46240	1427.91138	61.98853	1158.36121	1352.31482	290.86121	1211.37158	1582.61682	144.30937	1358.90503	1666.32654	107.52569	1176.65662	1682.50598	55.31739	1070.85596	1661.76270	-52.37624	1012.70746	1607.75024	-149.99074	967.56024	1656.56995	-141.85188	943.29639	1636.98474	-218.42857	924.93762	1270.34607	179.50485	1342.33545	1201.16711	212.88829	1121.53406	1189.33862	218.94196	1008.11694	1184.93848	238.24582	872.16772	1215.52832	231.70013	770.31293	1174.60107	268.47125	775.53906	1186.34729	272.29462	699.88837	1551.70630	87.12278	918.87531	1312.06335	82.09478	924.82379	1493.93298	249.20424	938.40186	1346.19275	245.26912	942.10400	1597.09827	188.10109	625.10242	1574.15857	228.55016	447.90210	1576.53967	376.21524	307.06995	1538.64099	513.41858	149.18436	1503.76880	565.17627	146.86369	1502.99023	418.23734	32.81717	1263.05396	58.64773	638.63849	1303.55994	-20.71195	481.71777	1293.24695	-30.60101	287.80423	1330.40308	-59.53659	71.98368	1380.97791	-14.84527	39.13696	1356.00061	-199.29567	42.60156																											 
109	1.080	1474.84180	48.38793	1598.20642	1343.84180	73.56005	1600.93115	1494.14063	177.58321	1562.60083	1364.38452	197.51425	1564.77234	1437.20483	221.73285	1394.27612	1435.05872	241.26202	1077.28369	1422.94788	98.90677	1321.18787	1426.87158	47.09130	1159.17932	1350.87769	276.00385	1211.00757	1581.85693	131.07819	1358.94299	1665.41345	95.68559	1176.04980	1681.64233	44.04510	1070.07043	1660.10974	-63.98109	1013.54834	1605.44556	-161.88025	970.44415	1654.01660	-154.41663	945.62665	1634.09290	-231.17738	929.44037	1269.08301	164.90256	1342.74536	1200.02649	197.62074	1121.80994	1188.48547	203.58664	1008.23877	1184.28162	223.30043	872.28162	1215.28467	217.36493	770.46277	1173.73450	254.00882	775.77289	1186.18091	258.91440	700.19312	1550.03528	71.18853	918.44702	1310.78516	66.12915	925.85492	1492.48169	233.32085	937.77948	1344.54858	229.25150	943.13922	1596.95691	168.39499	623.21759	1576.21106	206.29037	445.13834	1576.09399	358.78375	309.53586	1536.56445	500.97559	157.87369	1500.20227	550.84442	159.37772	1502.02966	417.56726	32.42951	1260.76282	45.00864	639.23944	1302.41248	-37.13094	482.73874	1292.02429	-43.16899	288.79703	1330.95801	-61.18174	72.14194	1381.26611	-15.92023	39.54866	1353.79749	-200.98170	40.27991																											 
110	1.090	1474.46289	34.61245	1598.60571	1343.40784	59.20605	1601.53308	1493.08716	163.80313	1563.21460	1363.41919	183.29329	1565.65112	1435.51965	207.34320	1394.63696	1433.91699	226.21432	1077.45691	1422.06921	84.74778	1322.05090	1425.90515	32.21351	1160.28821	1348.99609	260.99478	1211.11523	1580.98596	117.86956	1359.37292	1664.26392	83.95382	1175.80359	1680.64197	33.02473	1069.60022	1658.52832	-75.08364	1014.49005	1603.28711	-173.23141	972.61548	1651.70264	-166.25092	947.39880	1631.32678	-243.18425	932.88770	1267.89111	150.17912	1343.36902	1198.91833	182.09122	1122.40503	1187.62012	187.86905	1008.76855	1183.62524	207.58711	872.79553	1215.01904	202.49660	770.95782	1172.95215	238.34663	776.26770	1186.02039	244.46654	700.65643	1548.96997	55.81556	918.07318	1309.58850	50.58595	927.15204	1491.07373	217.72594	937.32697	1343.19971	213.47522	944.61786	1596.92053	147.96536	621.10870	1578.04895	182.33148	442.50586	1575.78345	339.38443	312.32104	1534.44373	485.67053	166.20993	1496.28186	533.30176	172.28014	1501.34753	416.68195	32.59122	1259.76172	31.58220	639.67200	1302.26074	-52.98628	483.94275	1291.15723	-53.88563	289.10638	1332.21643	-62.69091	72.44757	1381.58276	-16.39639	39.94847	1355.04797	-202.47054	38.82424																											 
